# ProBuilder 4.4.0
# https://unity3d.com/unity/features/worldbuilding/probuilder
# 3/04/2021 4:03:02 p. m.

mtllib ./Arch_(1).mtl
o Arch (1)

g Arch (1)
v -3.365463 -2.42837E-06 7.202109
v -1.44607 5.656852 8.546082
v -3.93904 -2.42837E-06 8.021261
v -2.019647 5.656852 9.365234
v 0.7955419 2.920349 10.11568
v -0.1953447 -2.42837E-06 9.42185
v 0.2219656 2.920349 10.93483
v -0.7689211 -2.42837E-06 10.241
v 3.187754 7.999998 11.79072
v 2.614177 7.999998 12.60987
v 3.187754 4.129998 11.79072
v 2.614177 4.129998 12.60987
v 7.821578 5.656852 15.03536
v 7.248002 5.656852 15.85451
v 5.579966 2.920349 13.46576
v 5.006389 2.920349 14.28492
v 9.740971 -3.127752E-06 16.37933
v 9.167395 -3.127752E-06 17.19848
v 6.570852 -2.789426E-06 14.15959
v 5.997276 -2.789426E-06 14.97874

vt 0 0
vt 0 6.122935
vt 1 0
vt 1 6.122935
vt 0 4.64195
vt 0 1.480985
vt -1 4.64195
vt -1 1.480985
vt 0 1
vt 3.87 1
vt 3.87 0
vt -4.329569 0
vt -10.4525 0
vt -4.329569 1
vt -10.4525 1
vt 8.971519 0
vt 5.810554 0
vt 8.971519 1
vt 5.810554 1
vt 0 -6.122934
vt -1 1.24818E-06
vt -1 -6.122934
vt 0 -4.64195
vt 0 -1.480984
vt 1 -4.64195
vt 1 -1.480984
vt 12.13 1
vt 16 1
vt 12.13 0
vt 16 0
vt 2.343146 5.656854
vt 5.079649 2.920351
vt -2.343146 5.656854
vt -5.079649 2.920351
vt -3.87 0
vt 8 8
vt 8 4.13
vt -8 8
vt -8 4.13
vt 13.65685 5.656854
vt 10.92035 2.920351
vt -13.65685 5.656854
vt -10.92035 2.920351
vt -16 -6.993822E-07
vt -12.13 -3.610561E-07

vn -0.7567979 0.3826835 -0.5299155
vn 0.7567979 -0.3826835 0.5299155
vn -7.105427E-15 -1 2.842171E-14
vn -0.313476 0.9238795 -0.2194982
vn 0.313476 -0.9238795 0.2194982
vn 0.3134759 0.9238796 0.2194982
vn -0.313476 -0.9238795 -0.2194982
vn 0.7567979 0.3826833 0.5299155
vn -0.7567979 -0.3826834 -0.5299155
vn -0.5735764 2.842171E-14 0.8191521
vn 0.5735764 -2.842171E-14 -0.8191521

usemtl Default
f 3/3/1 4/4/1 2/2/1 1/1/1
f 7/7/2 8/8/2 6/6/2 5/5/2
f 1/1/3 6/11/3 8/10/3 3/9/3
f 4/14/4 10/15/4 9/13/4 2/12/4
f 12/18/5 7/19/5 5/17/5 11/16/5
f 10/14/6 14/15/6 13/13/6 9/12/6
f 16/18/7 12/19/7 11/17/7 15/16/7
f 14/21/8 18/22/8 17/20/8 13/1/8
f 20/25/9 16/26/9 15/24/9 19/23/9
f 19/29/3 17/30/3 18/28/3 20/27/3
f 8/11/10 7/32/10 4/31/10 3/1/10
f 5/34/11 6/35/11 1/1/11 2/33/11
f 7/32/10 12/37/10 10/36/10 4/31/10
f 11/39/11 5/34/11 2/33/11 9/38/11
f 12/37/10 16/41/10 14/40/10 10/36/10
f 15/43/11 11/39/11 9/38/11 13/42/11
f 16/41/10 20/29/10 18/30/10 14/40/10
f 19/45/11 15/43/11 13/42/11 17/44/11

g Door
v -0.09903336 -7.653968E-06 22.7003
v -2.099033 -7.653968E-06 22.7003
v -6.099033 -7.653968E-06 22.7003
v -8.099033 -7.653968E-06 22.7003
v -0.09903336 4.999992 22.7003
v -2.099033 4.999992 22.7003
v -6.099033 4.999992 22.7003
v -8.099033 4.999992 22.7003
v -2.099033 -7.653968E-06 17.7003
v -0.09903336 -7.653968E-06 17.7003
v -8.099033 -7.653968E-06 17.7003
v -6.099033 -7.653968E-06 17.7003
v -2.099033 4.999992 17.7003
v -0.09903336 4.999992 17.7003
v -8.099033 4.999992 17.7003
v -6.099033 4.999992 17.7003

vt 0 0
vt -2 0
vt 0 5
vt -2 5
vt -6 0
vt -8 0
vt -6 5
vt -8 5
vt 2 0
vt 2 5
vt 8 0
vt 6 0
vt 8 5
vt 6 5
vt -6 -5
vt -2 -5

vn 0 0 0
vn 0 0 1
vn 0 0 -1
vn 0 -1 0

usemtl Default
f 21/46/12 22/46/12 22/46/12 21/46/12
f 23/46/12 24/46/12 24/46/12 23/46/12
f 25/48/13 26/49/13 22/47/13 21/46/13
f 27/52/13 28/53/13 24/51/13 23/50/13
f 26/49/13 27/52/13 23/50/13 22/47/13
f 29/46/12 30/46/12 30/46/12 29/46/12
f 31/46/12 32/46/12 32/46/12 31/46/12
f 33/55/14 34/48/14 30/46/14 29/54/14
f 35/58/14 36/59/14 32/57/14 31/56/14
f 36/59/14 33/55/14 29/54/14 32/57/14
f 32/60/15 29/61/15 22/47/15 23/50/15
f 32/46/12 23/46/12 23/46/12 32/46/12
f 22/46/12 29/46/12 29/46/12 22/46/12

g Cube
v 29.90097 -1.000001 44.20029
v -20.09903 -1.000001 44.20029
v 29.90097 -9.536743E-07 44.20029
v -20.09903 -9.536743E-07 44.20029
v -20.09903 -1.000001 -5.799706
v -20.09903 -9.536743E-07 -5.799706
v 29.90097 -1.000001 -5.799706
v 29.90097 -9.536743E-07 -5.799706

vt 0 0
vt -50 0
vt 0 1
vt -50 1
vt 50 0
vt 50 1
vt 0 -50
vt 50 -50
vt -50 -50

vn 0 0 1
vn -1 0 0
vn 0 0 -1
vn 1 0 0
vn 0 1 0
vn 0 -1 0

usemtl Default
f 39/64/16 40/65/16 38/63/16 37/62/16
f 40/64/17 42/65/17 41/63/17 38/62/17
f 42/67/18 44/64/18 43/62/18 41/66/18
f 44/67/19 39/64/19 37/62/19 43/66/19
f 44/68/20 42/69/20 40/66/20 39/62/20
f 37/62/21 38/63/21 41/70/21 43/68/21

g Stairs
v 20.79384 -2.33356E-06 6.92092
v 20.79384 -2.33356E-06 2.197689
v 20.79384 1.187822 6.92092
v 20.79384 1.187822 2.197689
v 22.1938 1.187822 6.92092
v 22.1938 1.187822 2.197689
v 22.1938 2.375647 6.92092
v 22.1938 2.375647 2.197689
v 23.59375 2.375647 6.92092
v 23.59375 2.375647 2.197689
v 23.59375 3.563471 6.92092
v 23.59375 3.563471 2.197689
v 24.99371 3.563471 6.92092
v 24.99371 3.563471 2.197689
v 24.99371 4.751296 6.92092
v 24.99371 4.751296 2.197689
v 26.39367 4.751296 6.92092
v 26.39367 4.751296 2.197688
v 26.39367 5.93912 6.92092
v 26.39367 5.93912 2.197688
v 27.79362 5.93912 6.920919
v 27.79362 5.93912 2.197688
v 27.79362 7.126945 6.920919
v 27.79362 7.126945 2.197688
v 29.19358 7.126945 6.920919
v 29.19358 7.126945 2.197688
v 22.1938 -2.33356E-06 2.197689
v 23.59375 -2.33356E-06 2.197689
v 24.99371 -2.33356E-06 2.197689
v 26.39367 -2.33356E-06 2.197688
v 27.79362 -2.33356E-06 2.197688
v 29.19358 -2.33356E-06 2.197688
v 22.1938 -2.33356E-06 6.92092
v 23.59375 -2.33356E-06 6.92092
v 24.99371 -2.33356E-06 6.92092
v 26.39367 -2.33356E-06 6.92092
v 27.79362 -2.33356E-06 6.920919
v 29.19358 -2.33356E-06 6.920919

vt 0 0
vt -4.723231 0
vt 0 1.187825
vt -4.723231 1.187825
vt 0 1.399957
vt -4.723231 1.399957
vt 0 2.375649
vt -4.723231 2.375649
vt 0 2.799914
vt -4.723231 2.799914
vt 0 3.563474
vt -4.723231 3.563474
vt 0 4.199871
vt -4.723231 4.199871
vt 0 4.751298
vt -4.723231 4.751298
vt 0 5.599828
vt -4.723231 5.599828
vt 0 5.939123
vt -4.723231 5.939123
vt 0 6.999784
vt -4.723231 6.999784
vt 0 7.126947
vt -4.723231 7.126947
vt 0 8.399741
vt -4.723231 8.399741
vt -1.399957 0
vt -1.399957 1.187825
vt -2.799914 0
vt -2.799914 2.375649
vt -1.399957 2.375649
vt -4.199871 0
vt -4.199871 3.563474
vt -2.799914 3.563474
vt -5.599827 0
vt -5.599827 4.751298
vt -4.199871 4.751298
vt -6.999784 0
vt -6.999784 5.939123
vt -5.599827 5.939123
vt -8.399741 0
vt -8.399741 7.126947
vt -6.999784 7.126947
vt 1.399957 0
vt 1.399957 1.187825
vt 2.799914 0
vt 2.799914 2.375649
vt 1.399957 2.375649
vt 4.199871 0
vt 4.199871 3.563474
vt 2.799914 3.563474
vt 5.599827 0
vt 5.599827 4.751298
vt 4.199871 4.751298
vt 6.999784 0
vt 6.999784 5.939123
vt 5.599827 5.939123
vt 8.399741 0
vt 8.399741 7.126947
vt 6.999784 7.126947
vt 4.723231 0
vt 4.723231 7.126947

vn -1 -4.019437E-14 1.192093E-07
vn 0 1 -2.842171E-14
vn -1.192093E-07 0 -1
vn 1.192093E-07 0 1
vn 1 4.019437E-14 -1.192093E-07

usemtl Default
f 50/98/24 52/101/24 54/100/24
f 54/100/24 56/104/24 58/103/24
f 58/103/24 60/107/24 62/106/24
f 62/106/24 64/110/24 66/109/24
f 66/109/24 68/113/24 70/112/24
f 53/117/25 51/118/25 49/115/25
f 57/120/25 55/121/25 53/117/25
f 61/123/25 59/124/25 57/120/25
f 65/126/25 63/127/25 61/123/25
f 69/129/25 67/130/25 65/126/25
f 48/74/22 46/72/22 45/71/22
f 45/71/22 47/73/22 48/74/22
f 50/76/23 48/72/23 47/71/23
f 47/71/23 49/75/23 50/76/23
f 52/78/22 50/74/22 49/73/22
f 49/73/22 51/77/22 52/78/22
f 54/80/23 52/76/23 51/75/23
f 51/75/23 53/79/23 54/80/23
f 56/82/22 54/78/22 53/77/22
f 53/77/22 55/81/22 56/82/22
f 58/84/23 56/80/23 55/79/23
f 55/79/23 57/83/23 58/84/23
f 60/86/22 58/82/22 57/81/22
f 57/81/22 59/85/22 60/86/22
f 62/88/23 60/84/23 59/83/23
f 59/83/23 61/87/23 62/88/23
f 64/90/22 62/86/22 61/85/22
f 61/85/22 63/89/22 64/90/22
f 66/92/23 64/88/23 63/87/23
f 63/87/23 65/91/23 66/92/23
f 68/94/22 66/90/22 65/89/22
f 65/89/22 67/93/22 68/94/22
f 70/96/23 68/92/23 67/91/23
f 67/91/23 69/95/23 70/96/23
f 50/98/24 71/97/24 46/71/24
f 46/71/24 48/73/24 50/98/24
f 54/100/24 72/99/24 71/97/24
f 71/97/24 50/98/24 54/100/24
f 58/103/24 73/102/24 72/99/24
f 72/99/24 54/100/24 58/103/24
f 62/106/24 74/105/24 73/102/24
f 73/102/24 58/103/24 62/106/24
f 66/109/24 75/108/24 74/105/24
f 74/105/24 62/106/24 66/109/24
f 70/112/24 76/111/24 75/108/24
f 75/108/24 66/109/24 70/112/24
f 47/73/25 45/71/25 77/114/25
f 77/114/25 49/115/25 47/73/25
f 49/115/25 77/114/25 78/116/25
f 78/116/25 53/117/25 49/115/25
f 53/117/25 78/116/25 79/119/25
f 79/119/25 57/120/25 53/117/25
f 57/120/25 79/119/25 80/122/25
f 80/122/25 61/123/25 57/120/25
f 61/123/25 80/122/25 81/125/25
f 81/125/25 65/126/25 61/123/25
f 65/126/25 81/125/25 82/128/25
f 82/128/25 69/129/25 65/126/25
f 69/93/26 82/71/26 76/131/26
f 76/131/26 70/132/26 69/93/26

g Arch (3)
v 15.40097 9.439895E-07 -2.799704
v 15.40097 5.656855 -0.4565575
v 14.40097 9.439896E-07 -2.799704
v 14.40097 5.656855 -0.4565576
v 15.40097 2.920352 2.279946
v 15.40097 9.439895E-07 1.070297
v 14.40097 2.920352 2.279946
v 14.40097 9.439896E-07 1.070297
v 15.40097 8.000001 5.200297
v 14.40097 8.000001 5.200297
v 15.40097 4.130001 5.200297
v 14.40097 4.130001 5.200297
v 15.40096 5.656855 10.85715
v 14.40096 5.656855 10.85715
v 15.40097 2.920352 8.120648
v 14.40097 2.920352 8.120648
v 15.40096 2.446073E-07 13.2003
v 14.40096 2.446073E-07 13.2003
v 15.40096 5.829335E-07 9.330298
v 14.40096 5.829335E-07 9.330297

vt 0 0
vt 0 6.122935
vt 1 0
vt 1 6.122935
vt 0 4.64195
vt 0 1.480985
vt -1 4.64195
vt -1 1.480985
vt 0 1
vt 3.87 1
vt 3.87 0
vt -4.329569 0
vt -10.4525 0
vt -4.329569 1
vt -10.4525 1
vt 8.971519 0
vt 5.810554 0
vt 8.971519 1
vt 5.810554 1
vt 0 -6.122934
vt -1 1.24818E-06
vt -1 -6.122934
vt 0 -4.64195
vt 0 -1.480984
vt 1 -4.64195
vt 1 -1.480984
vt 12.13 1
vt 16 1
vt 12.13 0
vt 16 0
vt 2.343146 5.656854
vt 5.079649 2.920351
vt -2.343146 5.656854
vt -5.079649 2.920351
vt -3.87 0
vt 8 8
vt 8 4.13
vt -8 8
vt -8 4.13
vt 13.65685 5.656854
vt 10.92035 2.920351
vt -13.65685 5.656854
vt -10.92035 2.920351
vt -16 -6.993822E-07
vt -12.13 -3.610561E-07

vn 1.10135E-07 0.3826835 -0.9238796
vn -1.10135E-07 -0.3826835 0.9238796
vn 0 -1 2.842171E-14
vn 4.561942E-08 0.9238795 -0.3826835
vn -4.561942E-08 -0.9238795 0.3826835
vn -4.561942E-08 0.9238796 0.3826835
vn 4.561942E-08 -0.9238795 -0.3826835
vn -1.10135E-07 0.3826833 0.9238797
vn 1.10135E-07 -0.3826834 -0.9238797
vn -1 4.019437E-14 -1.192093E-07
vn 1 -4.019437E-14 1.192093E-07

usemtl Default
f 85/135/27 86/136/27 84/134/27 83/133/27
f 89/139/28 90/140/28 88/138/28 87/137/28
f 83/133/29 88/143/29 90/142/29 85/141/29
f 86/146/30 92/147/30 91/145/30 84/144/30
f 94/150/31 89/151/31 87/149/31 93/148/31
f 92/146/32 96/147/32 95/145/32 91/144/32
f 98/150/33 94/151/33 93/149/33 97/148/33
f 96/153/34 100/154/34 99/152/34 95/133/34
f 102/157/35 98/158/35 97/156/35 101/155/35
f 101/161/29 99/162/29 100/160/29 102/159/29
f 90/143/36 89/164/36 86/163/36 85/133/36
f 87/166/37 88/167/37 83/133/37 84/165/37
f 89/164/36 94/169/36 92/168/36 86/163/36
f 93/171/37 87/166/37 84/165/37 91/170/37
f 94/169/36 98/173/36 96/172/36 92/168/36
f 97/175/37 93/171/37 91/170/37 95/174/37
f 98/173/36 102/161/36 100/162/36 96/172/36
f 101/177/37 97/175/37 95/174/37 99/176/37

g Arch (2)
v 5.973174 8.81633E-08 -0.2614765
v 6.96343 5.656854 1.862135
v 5.066866 8.816333E-08 0.1611417
v 6.057122 5.656854 2.284753
v 8.119925 2.920351 4.342249
v 7.608706 8.81633E-08 3.245935
v 7.213618 2.920351 4.764868
v 6.702398 8.816333E-08 3.668553
v 9.354119 8 6.988986
v 8.447811 8 7.411605
v 9.354119 4.13 6.988986
v 8.447811 4.13 7.411605
v 11.74481 5.656854 12.11584
v 10.8385 5.656854 12.53846
v 10.58831 2.920351 9.635724
v 9.682005 2.920351 10.05834
v 12.73507 -6.112189E-07 14.23945
v 11.82876 -6.112189E-07 14.66207
v 11.09953 -2.728928E-07 10.73204
v 10.19322 -2.728927E-07 11.15466

vt 0 0
vt 0 6.122935
vt 1 0
vt 1 6.122935
vt 0 4.64195
vt 0 1.480985
vt -1 4.64195
vt -1 1.480985
vt 0 1
vt 3.87 1
vt 3.87 0
vt -4.329569 0
vt -10.4525 0
vt -4.329569 1
vt -10.4525 1
vt 8.971519 0
vt 5.810554 0
vt 8.971519 1
vt 5.810554 1
vt 0 -6.122934
vt -1 1.24818E-06
vt -1 -6.122934
vt 0 -4.64195
vt 0 -1.480984
vt 1 -4.64195
vt 1 -1.480984
vt 12.13 1
vt 16 1
vt 12.13 0
vt 16 0
vt 2.343146 5.656854
vt 5.079649 2.920351
vt -2.343146 5.656854
vt -5.079649 2.920351
vt -3.87 0
vt 8 8
vt 8 4.13
vt -8 8
vt -8 4.13
vt 13.65685 5.656854
vt 10.92035 2.920351
vt -13.65685 5.656854
vt -10.92035 2.920351
vt -16 -6.993822E-07
vt -12.13 -3.610561E-07

vn -0.3904483 0.3826835 -0.8373193
vn 0.3904483 -0.3826835 0.8373193
vn -1.421085E-14 -1 2.842171E-14
vn -0.161729 0.9238795 -0.346829
vn 0.161729 -0.9238795 0.346829
vn 0.161729 0.9238796 0.346829
vn -0.161729 -0.9238795 -0.346829
vn 0.3904483 0.3826833 0.8373193
vn -0.3904483 -0.3826834 -0.8373193
vn -0.9063079 2.842171E-14 0.4226182
vn 0.9063079 -2.842171E-14 -0.4226182

usemtl Default
f 105/180/38 106/181/38 104/179/38 103/178/38
f 109/184/39 110/185/39 108/183/39 107/182/39
f 103/178/40 108/188/40 110/187/40 105/186/40
f 106/191/41 112/192/41 111/190/41 104/189/41
f 114/195/42 109/196/42 107/194/42 113/193/42
f 112/191/43 116/192/43 115/190/43 111/189/43
f 118/195/44 114/196/44 113/194/44 117/193/44
f 116/198/45 120/199/45 119/197/45 115/178/45
f 122/202/46 118/203/46 117/201/46 121/200/46
f 121/206/40 119/207/40 120/205/40 122/204/40
f 110/188/47 109/209/47 106/208/47 105/178/47
f 107/211/48 108/212/48 103/178/48 104/210/48
f 109/209/47 114/214/47 112/213/47 106/208/47
f 113/216/48 107/211/48 104/210/48 111/215/48
f 114/214/47 118/218/47 116/217/47 112/213/47
f 117/220/48 113/216/48 111/215/48 115/219/48
f 118/218/47 122/206/47 120/207/47 116/217/47
f 121/222/48 117/220/48 115/219/48 119/221/48

