# ProBuilder 4.4.0
# https://unity3d.com/unity/features/worldbuilding/probuilder
# 3/04/2021 4:28:27 p. m.

mtllib ./CubeMap.mtl
o CubeMap

g Left
v 5 10 -5
v 5 10 -1.666667
v 5 6.666666 -5
v 5 6.666666 -1.666667
v 5 10 1.666667
v 5 6.666666 1.666667
v 5 10 5
v 5 6.666666 5
v 5.000001 3.333333 -5
v 5.000001 3.333333 -1.666667
v 5.000001 3.333333 1.666667
v 5.000001 3.333333 5
v 5.000001 -1.192093E-06 -5
v 5.000001 -1.192093E-06 -1.666667
v 5.000001 -1.192093E-06 1.666667
v 5.000001 -1.192093E-06 5

vt 0 0
vt 0 3.333333
vt 3.333333 0
vt 3.333333 3.333333
vt 0 6.666667
vt 3.333333 6.666667
vt 0 10
vt 3.333333 10
vt 6.666667 0
vt 6.666667 3.333333
vt 6.666667 6.666667
vt 6.666667 10
vt 10 0
vt 10 3.333333
vt 10 6.666667
vt 10 10

vn -1 -1.192093E-07 0

usemtl Default
f 3/3/1 4/4/1 2/2/1 1/1/1
f 4/4/1 6/6/1 5/5/1 2/2/1
f 6/6/1 8/8/1 7/7/1 5/5/1
f 9/9/1 10/10/1 4/4/1 3/3/1
f 10/10/1 11/11/1 6/6/1 4/4/1
f 11/11/1 12/12/1 8/8/1 6/6/1
f 13/13/1 14/14/1 10/10/1 9/9/1
f 14/14/1 15/15/1 11/11/1 10/10/1
f 15/15/1 16/16/1 12/12/1 11/11/1

g Rigth
v -5 0 -5
v -5 0 -1.666667
v -5 3.333334 -5
v -5 3.333334 -1.666667
v -5 0 1.666667
v -5 3.333334 1.666667
v -5 0 5
v -5 3.333334 5
v -4.999999 6.666667 -5
v -4.999999 6.666667 -1.666667
v -4.999999 6.666667 1.666667
v -4.999999 6.666667 5
v -4.999999 10 -5
v -4.999999 10 -1.666667
v -4.999999 10 1.666667
v -4.999999 10 5

vt 0 0
vt 0 3.333333
vt 3.333333 0
vt 3.333333 3.333333
vt 0 6.666667
vt 3.333333 6.666667
vt 0 10
vt 3.333333 10
vt 6.666667 0
vt 6.666667 3.333333
vt 6.666667 6.666667
vt 6.666667 10
vt 10 0
vt 10 3.333333
vt 10 6.666667
vt 10 10

vn 1 -1.192093E-07 0

usemtl Default
f 19/19/2 20/20/2 18/18/2 17/17/2
f 20/20/2 22/22/2 21/21/2 18/18/2
f 22/22/2 24/24/2 23/23/2 21/21/2
f 25/25/2 26/26/2 20/20/2 19/19/2
f 26/26/2 27/27/2 22/22/2 20/20/2
f 27/27/2 28/28/2 24/24/2 22/22/2
f 29/29/2 30/30/2 26/26/2 25/25/2
f 30/30/2 31/31/2 27/27/2 26/26/2
f 31/31/2 32/32/2 28/28/2 27/27/2

g Core
v 0 5.850651 0
v 0.1624599 5.425325 0.2628655
v -0.2628655 5.688191 0.4253254
v -0.5257311 5.850651 0
v -0.2628655 5.688191 -0.4253254
v 0.1624599 5.425325 -0.2628655
v -0.6881909 5.425325 0.2628655
v -0.2628655 5.16246 0.4253254
v 0 5 0
v -0.2628655 5.16246 -0.4253254
v -0.6881909 5.425325 -0.2628655
v -0.5257311 5 0

vt 0 0.8506508
vt 0.1624599 0.4253254
vt -0.2628655 0.6881909
vt 0 0
vt 0.2628655 0.4253254
vt 0.5257311 0
vt 0.2628655 -0.4253254
vt 0.2628655 0.6881909
vt -0.1624599 0.4253254
vt -0.2628655 0.4253254
vt -0.5257311 0.8506508
vt -0.6881909 0.4253254
vt -0.2628655 0.1624599
vt 0.2628655 0.1624599
vt 0.5257311 0.8506508
vt 0.6881909 0.4253254
vt -0.5257311 0
vt -0.2628655 -0.4253254

vn 0.5773503 0.5773503 0.5773503
vn 0 0.9341723 0.3568221
vn 0 0.9341723 -0.3568221
vn 0.5773503 0.5773503 -0.5773503
vn 0.9341723 0.3568221 0
vn -0.5773503 0.5773503 0.5773503
vn 0.3568221 0 0.9341723
vn 0.9341723 -0.3568221 0
vn 0.3568221 0 -0.9341723
vn -0.5773503 0.5773503 -0.5773503
vn -0.5773503 -0.5773503 0.5773503
vn 0 -0.9341723 0.3568221
vn 0 -0.9341723 -0.3568221
vn -0.5773503 -0.5773503 -0.5773503
vn -0.9341723 -0.3568221 0
vn -0.3568221 0 0.9341723
vn 0.5773503 -0.5773503 0.5773503
vn 0.5773503 -0.5773503 -0.5773503
vn -0.3568221 0 -0.9341723
vn -0.9341723 0.3568221 0

usemtl Default
f 35/35/3 34/34/3 33/33/3
f 36/38/4 35/37/4 33/36/4
f 37/39/5 36/38/5 33/36/5
f 38/41/6 37/40/6 33/33/6
f 34/42/7 38/37/7 33/33/7
f 39/44/8 35/35/8 36/43/8
f 40/45/9 34/34/9 35/35/9
f 41/36/10 38/37/10 34/42/10
f 42/46/11 37/40/11 38/41/11
f 43/48/12 36/47/12 37/40/12
f 40/45/13 39/44/13 44/49/13
f 41/36/14 40/42/14 44/49/14
f 42/50/15 41/36/15 44/49/15
f 43/48/16 42/46/16 44/38/16
f 39/37/17 43/42/17 44/36/17
f 35/35/18 39/44/18 40/45/18
f 34/34/19 40/45/19 41/36/19
f 38/41/20 41/36/20 42/46/20
f 37/40/21 42/46/21 43/48/21
f 36/33/22 43/42/22 39/37/22

g Back
v 5 0 5
v 5 3.333334 5
v 1.666667 0 5
v 1.666667 3.333334 5
v 5 6.666667 4.999999
v 1.666667 6.666667 4.999999
v 5 10 4.999999
v 1.666667 10 4.999999
v -1.666667 0 5
v -1.666667 3.333334 5
v -1.666667 6.666667 4.999999
v -1.666667 10 4.999999
v -5 0 5
v -5 3.333334 5
v -5 6.666667 4.999999
v -5 10 4.999999

vt 0 0
vt 0 3.333333
vt 3.333333 0
vt 3.333333 3.333333
vt 0 6.666667
vt 3.333333 6.666667
vt 0 10
vt 3.333333 10
vt 6.666667 0
vt 6.666667 3.333333
vt 6.666667 6.666667
vt 6.666667 10
vt 10 0
vt 10 3.333333
vt 10 6.666667
vt 10 10

vn 0 -1.192093E-07 -1

usemtl Default
f 47/53/23 48/54/23 46/52/23 45/51/23
f 48/54/23 50/56/23 49/55/23 46/52/23
f 50/56/23 52/58/23 51/57/23 49/55/23
f 53/59/23 54/60/23 48/54/23 47/53/23
f 54/60/23 55/61/23 50/56/23 48/54/23
f 55/61/23 56/62/23 52/58/23 50/56/23
f 57/63/23 58/64/23 54/60/23 53/59/23
f 58/64/23 59/65/23 55/61/23 54/60/23
f 59/65/23 60/66/23 56/62/23 55/61/23

g Bot
v 5 0 -5
v 5 0 -1.666667
v 1.666667 0 -5
v 1.666667 0 -1.666667
v 5 0 1.666667
v 1.666667 0 1.666667
v 5 0 5
v 1.666667 0 5
v -1.666667 0 -5
v -1.666667 0 -1.666667
v -1.666667 0 1.666667
v -1.666667 0 5
v -5 0 -5
v -5 0 -1.666667
v -5 0 1.666667
v -5 0 5

vt 0 0
vt 0 3.333333
vt 3.333333 0
vt 3.333333 3.333333
vt 0 6.666667
vt 3.333333 6.666667
vt 0 10
vt 3.333333 10
vt 6.666667 0
vt 6.666667 3.333333
vt 6.666667 6.666667
vt 6.666667 10
vt 10 0
vt 10 3.333333
vt 10 6.666667
vt 10 10

vn 0 1 0

usemtl Default
f 63/69/24 64/70/24 62/68/24 61/67/24
f 64/70/24 66/72/24 65/71/24 62/68/24
f 66/72/24 68/74/24 67/73/24 65/71/24
f 69/75/24 70/76/24 64/70/24 63/69/24
f 70/76/24 71/77/24 66/72/24 64/70/24
f 71/77/24 72/78/24 68/74/24 66/72/24
f 73/79/24 74/80/24 70/76/24 69/75/24
f 74/80/24 75/81/24 71/77/24 70/76/24
f 75/81/24 76/82/24 72/78/24 71/77/24

g Up
v -5 10 -5
v -5 10 -1.666667
v -1.666667 10 -5
v -1.666667 10 -1.666667
v -5 10 1.666667
v -1.666667 10 1.666667
v -5 10 5
v -1.666667 10 5
v 1.666667 10 -5
v 1.666667 10 -1.666667
v 1.666667 10 1.666667
v 1.666667 10 5
v 5 10 -5
v 5 10 -1.666667
v 5 10 1.666667
v 5 10 5

vt 0 0
vt 0 3.333333
vt 3.333333 0
vt 3.333333 3.333333
vt 0 6.666667
vt 3.333333 6.666667
vt 0 10
vt 3.333333 10
vt 6.666667 0
vt 6.666667 3.333333
vt 6.666667 6.666667
vt 6.666667 10
vt 10 0
vt 10 3.333333
vt 10 6.666667
vt 10 10

vn 0 -1 0

usemtl Default
f 79/85/25 80/86/25 78/84/25 77/83/25
f 80/86/25 82/88/25 81/87/25 78/84/25
f 82/88/25 84/90/25 83/89/25 81/87/25
f 85/91/25 86/92/25 80/86/25 79/85/25
f 86/92/25 87/93/25 82/88/25 80/86/25
f 87/93/25 88/94/25 84/90/25 82/88/25
f 89/95/25 90/96/25 86/92/25 85/91/25
f 90/96/25 91/97/25 87/93/25 86/92/25
f 91/97/25 92/98/25 88/94/25 87/93/25

